<svg width="128" height="128" viewBox="0 0 128 128" fill="none" xmlns="http://www.w3.org/2000/svg">
<rect width="128" height="128" fill="#01363B"/>
<path d="M92.2996 81.7992C92.2996 89.7236 89.7735 97.0717 85.1814 102.584C80.0158 108.67 72.5535 112 64.2869 112C56.4805 112 49.3623 109.359 44.1966 104.536C38.6856 99.369 35.7007 92.1343 35.7007 83.751C35.7007 70.545 45.229 62.7366 54.4145 62.7366C59.3507 62.7366 63.5987 64.9179 66.813 68.5932C69.4538 71.6936 71.1757 75.8279 71.6345 80.7653C71.864 83.0626 70.0274 84.8996 67.7307 84.8996H66.3529C64.0575 84.8996 62.2209 83.0626 61.8755 80.7653C61.5327 78.2386 60.7272 76.0574 59.4654 74.6793C57.7435 72.7275 55.791 72.2686 54.4145 72.2686C49.9371 72.2686 45.345 76.6323 45.345 83.751C45.345 96.6128 54.8733 102.469 64.2882 102.469C73.1283 102.469 82.7713 95.9244 82.7713 81.7992C82.7713 72.957 75.6531 66.7562 68.1908 60.0952C60.2684 52.9765 52.1178 45.6271 52.1178 34.6024C52.1178 24.382 59.4654 16 68.4202 16C75.9972 16 81.8511 20.708 84.952 28.7471C85.7562 30.8136 84.3772 32.9961 82.1978 33.5697L80.8187 33.9152C78.638 34.4889 76.4573 32.9961 75.5384 30.9296C74.2754 28.1734 72.0947 25.6467 68.4215 25.6467C65.2071 25.6467 61.6474 29.2073 61.6474 34.6036C61.6474 41.3781 67.732 46.661 74.6208 52.8618C82.886 60.3259 92.2996 68.708 92.2996 81.7992Z" fill="white"/>
</svg>
