<svg width="19" height="32" viewBox="0 0 19 32" fill="none" xmlns="http://www.w3.org/2000/svg">
    <path
        d="M18.8663 21.9331C18.8663 24.5745 18.0243 27.0239 16.4936 28.8614C14.7717 30.89 12.2843 32 9.52875 32C6.9266 32 4.55386 31.1195 2.83199 29.5119C0.994976 27.7897 0 25.3781 0 22.5837C0 18.1817 3.17611 15.5789 6.23794 15.5789C7.88334 15.5789 9.29933 16.306 10.3708 17.5311C11.2511 18.5645 11.825 19.9426 11.978 21.5884C12.0544 22.3542 11.4422 22.9665 10.6767 22.9665H10.2174C9.45228 22.9665 8.84008 22.3542 8.72495 21.5884C8.61067 20.7462 8.34216 20.0191 7.92158 19.5598C7.34762 18.9092 6.69676 18.7562 6.23794 18.7562C4.74547 18.7562 3.21477 20.2108 3.21477 22.5837C3.21477 26.8709 6.39088 28.8231 9.52918 28.8231C12.4759 28.8231 15.6902 26.6415 15.6902 21.9331C15.6902 18.9857 13.3175 16.9187 10.83 14.6984C8.18922 12.3255 5.47237 9.8757 5.47237 6.20078C5.47237 2.79401 7.92158 0 10.9065 0C13.4322 0 15.3835 1.56932 16.4171 4.24902C16.6852 4.93785 16.2255 5.66536 15.499 5.85658L15.0394 5.97175C14.3125 6.16297 13.5856 5.66536 13.2792 4.97653C12.8582 4.0578 12.1313 3.21556 10.9069 3.21556C9.83549 3.21556 8.64891 4.40243 8.64891 6.20121C8.64891 8.45936 10.6771 10.2203 12.9734 12.2873C15.7284 14.7753 18.8663 17.5693 18.8663 21.9331Z"
        fill="currentColor" />
</svg>