<svg width="474" height="204" viewBox="0 0 474 204" fill="none" xmlns="http://www.w3.org/2000/svg">
    <path
        d="M104.069 124.228C104.069 138.798 99.4246 152.31 90.981 162.445C81.4829 173.636 67.7618 179.758 52.562 179.758C38.2081 179.758 25.1198 174.902 15.6217 166.034C5.48844 156.534 0 143.231 0 127.817C0 103.534 17.5199 89.1771 34.4094 89.1771C43.4857 89.1771 51.2965 93.1878 57.2068 99.9457C62.0625 105.646 65.2285 113.248 66.0722 122.327C66.494 126.551 63.117 129.929 58.8941 129.929H56.3608C52.1402 129.929 48.7632 126.551 48.1281 122.327C47.4977 117.681 46.0166 113.67 43.6966 111.136C40.5305 107.547 36.9403 106.704 34.4094 106.704C26.1767 106.704 17.7332 114.727 17.7332 127.817C17.7332 151.466 35.253 162.234 52.5643 162.234C68.8187 162.234 86.5495 150.2 86.5495 124.228C86.5495 107.969 73.4612 96.5679 59.7401 84.3202C45.173 71.231 30.1864 57.7176 30.1864 37.4461C30.1864 18.6538 43.6966 3.2417 60.1619 3.2417C74.0939 3.2417 84.8575 11.8983 90.5592 26.6799C92.038 30.4796 89.5023 34.4927 85.495 35.5475L82.9593 36.1827C78.9496 37.2375 74.9399 34.4927 73.2503 30.693C70.9279 25.6251 66.9182 20.9792 60.1643 20.9792C54.254 20.9792 47.7086 27.5261 47.7086 37.4485C47.7086 49.9048 58.8964 59.6186 71.563 71.0201C86.7604 84.7445 104.069 100.157 104.069 124.228Z"
        fill="currentColor" />
    <path
        d="M133.686 59.5521V80.4706C133.686 83.7133 136.281 86.3088 139.359 86.3088H147.303C150.545 86.3088 153.14 88.9044 153.14 92.147V94.0931C153.14 97.3358 150.545 99.9313 147.303 99.9313H139.359C136.279 99.9313 133.686 102.527 133.686 105.77V123.284C133.686 126.527 136.281 129.122 139.359 129.122H157.031C160.112 129.122 162.704 131.718 162.704 134.961V136.907C162.704 140.149 160.109 142.745 157.031 142.745H125.906C122.664 142.745 120.069 140.149 120.069 136.907V45.9296C120.069 42.8481 122.664 40.2549 125.906 40.2549H157.033C160.275 40.2549 162.87 42.8481 162.87 45.9296V47.8756C162.87 51.1183 160.278 53.7138 157.033 53.7138H139.362C136.281 53.7138 133.686 56.3094 133.686 59.5521Z"
        fill="currentColor" />
    <path
        d="M233.991 91.7429V138.119C233.991 141.362 231.397 143.957 228.318 143.957H226.373C223.131 143.957 220.536 141.362 220.536 138.119V127.742C220.536 124.499 217.941 121.904 214.699 121.904H198.163C194.921 121.904 192.326 124.499 192.326 127.742V138.119C192.326 141.362 189.733 143.957 186.653 143.957H184.707C181.465 143.957 178.87 141.362 178.87 138.119V91.7429C178.87 78.7699 178.87 39.0425 206.431 39.0425C233.991 39.0425 233.991 78.7699 233.991 91.7429ZM220.536 91.7429C220.536 65.7969 215.834 52.6626 206.433 52.6626C197.191 52.6626 192.328 65.7969 192.328 91.7429V102.606C192.328 105.849 194.923 108.445 198.165 108.445H214.701C217.943 108.445 220.538 105.851 220.538 102.606V91.7429H220.536Z"
        fill="currentColor" />
    <path
        d="M369.723 197.489C364.234 201.762 358.113 203.336 351.146 203.336C338.904 203.336 324.761 197.939 311.672 192.99C291.619 185.34 276.841 179.941 267.343 184.442C263.542 186.241 258.899 187.142 255.523 184.217L253.622 182.643C250.245 179.943 248.977 175.669 250.878 173.645C252.989 171.396 254.89 166.671 254.89 162.398V28.0972C254.89 23.5982 258.267 20 262.276 20H264.81C269.033 20 272.41 23.6006 272.41 28.0972V156.097C272.41 160.596 275.787 163.972 280.007 164.42C292.25 165.771 305.338 170.492 317.58 175.219C334.259 181.742 346.923 185.791 354.734 184.217C358.954 183.316 363.81 182.418 367.187 185.343L369.088 186.917C372.467 189.614 373.1 194.789 369.723 197.489Z"
        fill="currentColor" />
    <path
        d="M306.611 59.5521V80.4706C306.611 83.7133 309.206 86.3088 312.284 86.3088H320.228C323.47 86.3088 326.065 88.9044 326.065 92.147V94.0931C326.065 97.3358 323.47 99.9313 320.228 99.9313H312.284C309.203 99.9313 306.611 102.527 306.611 105.77V123.284C306.611 126.527 309.206 129.122 312.284 129.122H329.956C333.036 129.122 335.629 131.718 335.629 134.961V136.907C335.629 140.149 333.034 142.745 329.956 142.745H298.828C295.587 142.745 292.992 140.149 292.992 136.907V45.9296C292.992 42.8481 295.587 40.2549 298.828 40.2549H329.956C333.198 40.2549 335.793 42.8481 335.793 45.9296V47.8756C335.793 51.1183 333.2 53.7138 329.956 53.7138H312.284C309.206 53.7138 306.611 56.3094 306.611 59.5521Z"
        fill="currentColor" />
    <path
        d="M403.997 45.932V136.902C403.997 140.145 401.404 142.74 398.16 142.74H396.214C393.134 142.74 390.541 140.145 390.541 136.902V97.3358C390.541 94.0932 388.759 89.5515 386.489 87.2831L369.303 68.6354C367.033 66.2034 365.248 66.8529 365.248 70.0955V136.904C365.248 140.147 362.656 142.743 359.575 142.743H357.629C354.387 142.743 351.792 140.147 351.792 136.904V45.932C351.792 42.8505 353.902 40.2573 356.655 40.2573C359.25 40.2573 363.303 42.0398 365.409 44.4742L386.486 67.3388C388.756 69.6096 390.539 68.9601 390.539 65.7175V45.9344C390.539 42.8529 393.134 40.2597 396.212 40.2597H398.157C401.404 40.2573 403.997 42.8529 403.997 45.932Z"
        fill="currentColor" />
    <path
        d="M473.69 118.093C473.69 133.984 463.476 144.2 447.914 144.2C432.837 144.2 424.244 130.58 420.516 122.796C419.057 119.878 420.841 116.635 423.758 115.5L425.704 115.014C428.782 114.042 432.026 115.663 433.484 118.42C436.24 123.609 441.105 130.744 447.914 130.744C456.021 130.744 460.073 126.366 460.073 118.095C460.073 108.204 452.129 101.069 443.7 93.6094C434.783 85.5027 424.571 76.4195 424.571 62.9605C424.571 49.1768 434.621 38.7993 447.755 38.7993C457.644 38.7993 466.073 44.7987 470.775 54.8538C472.071 57.7718 470.126 61.0168 467.047 61.8251L465.263 62.3134C462.184 63.2852 458.94 61.3392 457.319 58.5848C455.535 55.5033 452.456 52.2607 447.755 52.2607C441.108 52.2607 438.188 57.7741 438.188 62.9629C438.188 70.4224 444.996 76.4218 452.779 83.3955C462.504 92.3104 473.69 102.202 473.69 118.093Z"
        fill="currentColor" />
</svg>